<svg xmlns="http://www.w3.org/2000/svg" xmlns:xlink="http://www.w3.org/1999/xlink" width="100" zoomAndPan="magnify" viewBox="0 0 75 74.999997" height="100" preserveAspectRatio="xMidYMid meet" version="1.0"><defs><clipPath id="e91cd5a4b3"><path d="M 5.3125 27 L 20 27 L 20 70.550781 L 5.3125 70.550781 Z M 5.3125 27 " clip-rule="nonzero"/></clipPath><clipPath id="2105cca283"><path d="M 23.230469 4.550781 L 67.472656 4.550781 L 67.472656 70.449219 L 23.230469 70.449219 Z M 23.230469 4.550781 " clip-rule="nonzero"/></clipPath></defs><rect x="-7.5" width="90" fill="#ffffff" y="-7.5" height="89.999996" fill-opacity="1"/><rect x="-7.5" width="90" fill="#ffffff" y="-7.5" height="89.999996" fill-opacity="1"/><path fill="#1e334e" d="M 51.257812 49.074219 C 51.152344 49.195312 51.039062 49.316406 50.917969 49.4375 L 43.679688 56.675781 C 43.1875 57.167969 42.539062 57.4375 41.847656 57.4375 C 41.152344 57.4375 40.503906 57.167969 40.011719 56.675781 L 32.773438 49.4375 C 32.652344 49.316406 32.539062 49.195312 32.433594 49.070312 C 30.296875 46.574219 30.445312 42.796875 32.773438 40.46875 C 33.972656 39.269531 35.566406 38.609375 37.257812 38.609375 C 38.777344 38.609375 40.242188 39.15625 41.390625 40.140625 C 41.652344 40.367188 42.039062 40.367188 42.300781 40.140625 C 43.449219 39.15625 44.914062 38.609375 46.433594 38.609375 C 48.128906 38.609375 49.71875 39.269531 50.917969 40.46875 C 53.246094 42.796875 53.394531 46.574219 51.257812 49.074219 Z M 51.90625 39.480469 C 50.445312 38.019531 48.5 37.214844 46.433594 37.214844 C 44.777344 37.214844 43.167969 37.746094 41.847656 38.71875 C 40.523438 37.746094 38.914062 37.214844 37.257812 37.214844 C 35.191406 37.214844 33.246094 38.019531 31.785156 39.480469 C 30.398438 40.867188 29.597656 42.710938 29.523438 44.667969 C 29.453125 46.617188 30.109375 48.503906 31.371094 49.980469 C 31.5 50.128906 31.636719 50.277344 31.785156 50.425781 L 39.023438 57.664062 C 39.777344 58.417969 40.78125 58.832031 41.847656 58.832031 C 42.910156 58.832031 43.914062 58.417969 44.667969 57.664062 L 51.90625 50.425781 C 52.054688 50.277344 52.191406 50.128906 52.320312 49.980469 C 53.582031 48.503906 54.238281 46.617188 54.167969 44.667969 C 54.097656 42.710938 53.292969 40.867188 51.90625 39.480469 " fill-opacity="1" fill-rule="nonzero"/><g clip-path="url(#e91cd5a4b3)"><path fill="#1e334e" d="M 17.980469 64.492188 C 17.980469 66.980469 15.957031 69.007812 13.46875 69.007812 L 11.242188 69.007812 C 8.753906 69.007812 6.730469 66.980469 6.730469 64.492188 L 6.730469 32.976562 C 6.730469 30.488281 8.753906 28.464844 11.242188 28.464844 L 13.46875 28.464844 C 15.957031 28.464844 17.980469 30.488281 17.980469 32.976562 Z M 13.46875 27.066406 L 11.242188 27.066406 C 7.984375 27.066406 5.332031 29.71875 5.332031 32.976562 L 5.332031 64.492188 C 5.332031 67.753906 7.984375 70.402344 11.242188 70.402344 L 13.46875 70.402344 C 16.726562 70.402344 19.378906 67.753906 19.378906 64.492188 L 19.378906 32.976562 C 19.378906 29.71875 16.726562 27.066406 13.46875 27.066406 " fill-opacity="1" fill-rule="nonzero"/></g><g clip-path="url(#2105cca283)"><path fill="#1e334e" d="M 62.621094 39.953125 C 62.410156 40.027344 62.242188 40.195312 62.175781 40.410156 C 62.109375 40.625 62.152344 40.859375 62.289062 41.039062 C 63.339844 42.417969 63.660156 44.441406 63.128906 46.320312 C 62.664062 47.957031 61.609375 49.199219 60.234375 49.726562 C 60.03125 49.804688 59.878906 49.972656 59.816406 50.179688 C 59.753906 50.386719 59.792969 50.609375 59.917969 50.785156 C 60.742188 51.9375 60.847656 53.417969 60.792969 54.460938 C 60.792969 54.472656 60.792969 54.488281 60.792969 54.503906 C 60.816406 56.5 59.542969 58.4375 57.695312 59.222656 C 57.507812 59.300781 57.363281 59.460938 57.304688 59.65625 C 57.242188 59.851562 57.269531 60.066406 57.378906 60.238281 C 58.507812 62.027344 58.542969 64.421875 57.464844 66.34375 C 56.523438 68.019531 54.933594 68.976562 53.09375 68.976562 C 53.070312 68.976562 53.046875 68.976562 53.023438 68.976562 C 52.601562 68.945312 51.082031 68.941406 43.863281 68.984375 C 39.042969 69.011719 33.054688 69.042969 32.433594 68.988281 C 32.363281 68.976562 32.292969 68.972656 32.21875 68.980469 C 29.871094 69.25 27.742188 68.726562 26.378906 67.539062 C 25.292969 66.59375 24.722656 65.277344 24.679688 63.628906 L 24.679688 29.566406 C 24.679688 28.925781 25.148438 28.21875 25.597656 27.535156 C 25.753906 27.296875 25.914062 27.054688 26.050781 26.816406 C 28.535156 22.53125 29.496094 18.652344 29.269531 13.851562 C 29.269531 13.84375 29.265625 13.832031 29.265625 13.820312 C 29.242188 13.554688 29.210938 13.269531 29.175781 12.964844 C 28.917969 10.589844 28.566406 7.339844 30.433594 6.367188 C 32.148438 5.695312 33.964844 5.820312 35.828125 6.738281 C 39.167969 8.390625 41.742188 12.195312 42.558594 15.105469 C 42.558594 15.109375 42.5625 15.109375 42.5625 15.113281 C 43.695312 18.921875 43.792969 23.109375 42.863281 28.292969 C 42.828125 28.5 42.882812 28.707031 43.015625 28.867188 C 43.148438 29.027344 43.34375 29.117188 43.550781 29.117188 L 60.878906 29.117188 C 60.882812 29.117188 60.886719 29.117188 60.890625 29.117188 C 64.066406 29.066406 65.617188 31.53125 65.984375 33.65625 C 66.386719 36.007812 65.507812 38.984375 62.621094 39.953125 Z M 67.359375 33.421875 C 66.871094 30.570312 64.710938 27.71875 60.980469 27.71875 C 60.945312 27.71875 60.910156 27.71875 60.875 27.71875 L 44.378906 27.71875 C 45.195312 22.683594 45.039062 18.535156 43.902344 14.722656 C 42.835938 10.925781 39.769531 7.128906 36.445312 5.488281 C 34.230469 4.394531 31.960938 4.253906 29.882812 5.082031 C 29.867188 5.089844 29.847656 5.097656 29.828125 5.105469 C 27.066406 6.5 27.5 10.480469 27.789062 13.117188 C 27.820312 13.40625 27.851562 13.679688 27.875 13.933594 C 28.085938 18.441406 27.179688 22.085938 24.84375 26.113281 C 24.726562 26.316406 24.582031 26.535156 24.429688 26.765625 C 23.894531 27.582031 23.285156 28.507812 23.285156 29.566406 L 23.285156 63.636719 C 23.285156 63.644531 23.285156 63.648438 23.285156 63.65625 C 23.332031 65.6875 24.085938 67.394531 25.460938 68.59375 C 26.84375 69.796875 28.828125 70.449219 31.03125 70.449219 C 31.449219 70.449219 31.875 70.425781 32.308594 70.375 C 32.878906 70.425781 34.910156 70.429688 43.871094 70.378906 C 47.882812 70.359375 52.425781 70.332031 52.898438 70.367188 C 52.929688 70.371094 52.960938 70.375 52.992188 70.375 C 55.394531 70.414062 57.46875 69.191406 58.683594 67.027344 C 59.878906 64.898438 59.957031 62.28125 58.933594 60.160156 C 60.902344 59.011719 62.210938 56.792969 62.191406 54.511719 C 62.242188 53.445312 62.148438 51.992188 61.484375 50.679688 C 62.902344 49.878906 63.972656 48.46875 64.472656 46.699219 C 65.035156 44.722656 64.804688 42.59375 63.890625 40.941406 C 66.902344 39.464844 67.820312 36.109375 67.359375 33.421875 " fill-opacity="1" fill-rule="nonzero"/></g></svg>