<svg xmlns="http://www.w3.org/2000/svg" xmlns:xlink="http://www.w3.org/1999/xlink" width="100" zoomAndPan="magnify" viewBox="0 0 75 74.999997" height="100" preserveAspectRatio="xMidYMid meet" version="1.0"><defs><clipPath id="6254052747"><path d="M 4.464844 4.046875 L 70.464844 4.046875 L 70.464844 70.796875 L 4.464844 70.796875 Z M 4.464844 4.046875 " clip-rule="nonzero"/></clipPath></defs><rect x="-7.5" width="90" fill="#ffffff" y="-7.5" height="89.999996" fill-opacity="1"/><rect x="-7.5" width="90" fill="#ffffff" y="-7.5" height="89.999996" fill-opacity="1"/><g clip-path="url(#6254052747)"><path fill="#1e334e" d="M 28.175781 57.945312 L 44.578125 52.472656 L 28.199219 52.472656 C 27.484375 52.472656 26.90625 51.898438 26.90625 51.183594 C 26.90625 50.46875 27.484375 49.894531 28.199219 49.894531 L 45.585938 49.894531 C 46.773438 49.894531 47.773438 50.746094 47.972656 51.917969 C 48.167969 53.101562 47.480469 54.230469 46.34375 54.605469 L 28.964844 60.402344 C 28.679688 60.488281 28.433594 60.523438 28.195312 60.523438 C 27.484375 60.523438 26.90625 59.949219 26.90625 59.234375 C 26.90625 58.53125 27.472656 57.957031 28.175781 57.945312 Z M 46.195312 65.484375 C 46.164062 65.515625 43.269531 68.332031 37.625 68.332031 C 32.804688 68.332031 29.988281 66.28125 29.246094 65.664062 L 46.363281 59.957031 C 47.039062 59.734375 47.402344 59.003906 47.179688 58.328125 C 46.953125 57.652344 46.222656 57.289062 45.546875 57.511719 L 28.167969 63.300781 C 27.371094 63.566406 26.761719 64.234375 26.574219 65.039062 C 26.382812 65.847656 26.628906 66.71875 27.214844 67.304688 C 27.359375 67.449219 30.867188 70.910156 37.625 70.910156 C 44.375 70.910156 47.878906 67.449219 48.027344 67.304688 C 48.523438 66.796875 48.519531 65.988281 48.019531 65.484375 C 47.515625 64.980469 46.699219 64.984375 46.195312 65.484375 Z M 37.460938 6.992188 C 26.539062 6.992188 17.652344 15.875 17.652344 26.792969 C 17.652344 32.308594 20.523438 36.574219 23.078125 40.371094 C 24.832031 42.972656 26.347656 45.214844 26.347656 47.082031 C 26.347656 47.792969 26.925781 48.371094 27.636719 48.371094 C 28.351562 48.371094 28.929688 47.792969 28.929688 47.082031 C 28.929688 44.425781 27.207031 41.878906 25.199219 38.898438 C 22.871094 35.441406 20.234375 31.519531 20.234375 26.792969 C 20.234375 17.296875 27.960938 9.574219 37.460938 9.574219 C 46.953125 9.574219 54.675781 17.296875 54.675781 26.792969 C 54.675781 31.527344 52.035156 35.449219 49.703125 38.910156 C 47.710938 41.867188 45.984375 44.417969 45.984375 47.082031 C 45.984375 47.792969 46.5625 48.371094 47.273438 48.371094 C 47.988281 48.371094 48.566406 47.792969 48.566406 47.082031 C 48.566406 45.207031 50.085938 42.957031 51.84375 40.351562 C 54.378906 36.585938 57.253906 32.316406 57.253906 26.792969 C 57.253906 15.875 48.375 6.992188 37.460938 6.992188 Z M 38.410156 15.339844 C 38.410156 14.625 37.835938 14.046875 37.121094 14.046875 C 30.277344 14.046875 24.710938 19.617188 24.710938 26.460938 C 24.710938 27.175781 25.285156 27.75 26 27.75 C 26.714844 27.75 27.289062 27.175781 27.289062 26.460938 C 27.289062 21.039062 31.699219 16.628906 37.121094 16.628906 C 37.835938 16.628906 38.410156 16.050781 38.410156 15.339844 Z M 15.222656 26.792969 C 15.222656 26.078125 14.644531 25.5 13.933594 25.5 L 5.722656 25.5 C 5.007812 25.5 4.433594 26.078125 4.433594 26.792969 C 4.433594 27.503906 5.007812 28.082031 5.722656 28.082031 L 13.933594 28.082031 C 14.644531 28.082031 15.222656 27.503906 15.222656 26.792969 Z M 69.1875 25.5 L 60.976562 25.5 C 60.261719 25.5 59.683594 26.078125 59.683594 26.792969 C 59.683594 27.503906 60.261719 28.082031 60.976562 28.082031 L 69.1875 28.082031 C 69.902344 28.082031 70.480469 27.503906 70.480469 26.792969 C 70.480469 26.078125 69.902344 25.5 69.1875 25.5 Z M 18.9375 11.492188 C 19.167969 11.660156 19.433594 11.738281 19.695312 11.738281 C 20.09375 11.738281 20.488281 11.554688 20.742188 11.207031 C 21.160156 10.628906 21.03125 9.824219 20.457031 9.402344 L 13.8125 4.578125 C 13.238281 4.160156 12.429688 4.285156 12.011719 4.863281 C 11.59375 5.441406 11.71875 6.25 12.296875 6.667969 Z M 18.9375 42.097656 L 12.292969 46.921875 C 11.71875 47.339844 11.589844 48.148438 12.007812 48.726562 C 12.261719 49.074219 12.65625 49.257812 13.050781 49.257812 C 13.316406 49.257812 13.582031 49.175781 13.8125 49.011719 L 20.453125 44.183594 C 21.03125 43.765625 21.15625 42.960938 20.738281 42.382812 C 20.320312 41.800781 19.511719 41.679688 18.9375 42.097656 Z M 55.214844 11.738281 C 55.476562 11.738281 55.742188 11.660156 55.972656 11.492188 L 62.617188 6.667969 C 63.195312 6.25 63.320312 5.441406 62.902344 4.867188 C 62.484375 4.285156 61.671875 4.164062 61.097656 4.578125 L 54.457031 9.40625 C 53.878906 9.824219 53.753906 10.628906 54.171875 11.207031 C 54.421875 11.554688 54.816406 11.738281 55.214844 11.738281 Z M 55.972656 42.097656 C 55.402344 41.679688 54.589844 41.800781 54.171875 42.382812 C 53.753906 42.960938 53.878906 43.765625 54.457031 44.183594 L 61.097656 49.011719 C 61.328125 49.175781 61.59375 49.257812 61.859375 49.257812 C 62.257812 49.257812 62.648438 49.074219 62.902344 48.726562 C 63.320312 48.148438 63.195312 47.339844 62.617188 46.921875 Z M 55.972656 42.097656 " fill-opacity="1" fill-rule="nonzero"/></g></svg>