<svg xmlns="http://www.w3.org/2000/svg" xmlns:xlink="http://www.w3.org/1999/xlink" width="100" zoomAndPan="magnify" viewBox="0 0 75 74.999997" height="100" preserveAspectRatio="xMidYMid meet" version="1.0"><defs><clipPath id="02d12a67a8"><path d="M 11.808594 4.125 L 63.15625 4.125 L 63.15625 70.851562 L 11.808594 70.851562 Z M 11.808594 4.125 " clip-rule="nonzero"/></clipPath></defs><rect x="-7.5" width="90" fill="#ffffff" y="-7.5" height="89.999996" fill-opacity="1"/><rect x="-7.5" width="90" fill="#ffffff" y="-7.5" height="89.999996" fill-opacity="1"/><g clip-path="url(#02d12a67a8)"><path fill="#1e334e" d="M 37.464844 4.125 C 43.203125 4.125 48.515625 5.976562 52.832031 9.117188 C 57.257812 12.335938 60.632812 16.914062 62.351562 22.242188 C 64.371094 28.507812 62.390625 36.089844 58.652344 43.539062 C 53.3125 54.1875 44.367188 64.664062 38.675781 70.351562 C 38.007812 71.019531 36.921875 71.019531 36.253906 70.351562 L 36.238281 70.335938 C 30.429688 64.523438 21.40625 54.003906 16.125 43.277344 C 12.421875 35.761719 10.542969 28.101562 12.761719 21.703125 C 14.5625 16.515625 17.945312 12.074219 22.332031 8.957031 C 26.605469 5.914062 31.828125 4.125 37.464844 4.125 Z M 50.824219 11.886719 C 47.078125 9.164062 42.457031 7.550781 37.464844 7.550781 C 32.558594 7.550781 28.015625 9.101562 24.3125 11.738281 C 20.492188 14.453125 17.550781 18.316406 15.988281 22.8125 C 14.113281 28.214844 15.851562 34.992188 19.1875 41.765625 C 23.921875 51.375 31.839844 60.875 37.464844 66.695312 C 42.988281 60.96875 50.832031 51.527344 55.601562 42.011719 C 58.976562 35.289062 60.804688 28.574219 59.097656 23.285156 C 57.609375 18.664062 54.671875 14.691406 50.824219 11.886719 " fill-opacity="1" fill-rule="nonzero"/></g><path fill="#1e334e" d="M 37.464844 14.226562 C 41.148438 14.226562 44.480469 15.71875 46.894531 18.132812 C 49.308594 20.546875 50.804688 23.882812 50.804688 27.5625 C 50.804688 31.246094 49.308594 34.582031 46.894531 36.996094 C 44.480469 39.410156 41.148438 40.898438 37.464844 40.898438 C 33.78125 40.898438 30.449219 39.410156 28.035156 36.996094 C 25.621094 34.582031 24.125 31.246094 24.125 27.5625 C 24.125 23.882812 25.621094 20.546875 28.035156 18.132812 C 30.449219 15.71875 33.78125 14.226562 37.464844 14.226562 Z M 44.472656 20.554688 C 42.679688 18.761719 40.203125 17.652344 37.464844 17.652344 C 34.730469 17.652344 32.25 18.761719 30.457031 20.554688 C 28.664062 22.347656 27.554688 24.828125 27.554688 27.5625 C 27.554688 30.300781 28.664062 32.777344 30.457031 34.570312 C 32.25 36.363281 34.730469 37.472656 37.464844 37.472656 C 40.203125 37.472656 42.679688 36.363281 44.472656 34.570312 C 46.269531 32.777344 47.375 30.300781 47.375 27.5625 C 47.375 24.828125 46.269531 22.347656 44.472656 20.554688 " fill-opacity="1" fill-rule="nonzero"/></svg>