<svg xmlns="http://www.w3.org/2000/svg" xmlns:xlink="http://www.w3.org/1999/xlink" width="100" zoomAndPan="magnify" viewBox="0 0 75 74.999997" height="100" preserveAspectRatio="xMidYMid meet" version="1.0"><defs><clipPath id="013d649fe8"><path d="M 5.476562 6.253906 L 67.726562 6.253906 L 67.726562 68.503906 L 5.476562 68.503906 Z M 5.476562 6.253906 " clip-rule="nonzero"/></clipPath></defs><rect x="-7.5" width="90" fill="#ffffff" y="-7.5" height="89.999996" fill-opacity="1"/><rect x="-7.5" width="90" fill="#ffffff" y="-7.5" height="89.999996" fill-opacity="1"/><g clip-path="url(#013d649fe8)"><path fill="#1e334e" d="M 44.808594 35.984375 C 46.15625 34.21875 46.851562 32.035156 46.851562 29.804688 C 46.851562 24.085938 42.203125 19.4375 36.484375 19.4375 C 30.769531 19.4375 26.121094 24.085938 26.121094 29.804688 C 26.121094 32.035156 26.863281 34.21875 28.164062 35.984375 C 23.5625 38.820312 20.726562 43.890625 20.726562 49.375 L 20.726562 54.675781 C 20.726562 55.1875 21.144531 55.605469 21.65625 55.605469 L 51.269531 55.605469 C 51.78125 55.605469 52.199219 55.1875 52.199219 54.675781 L 52.199219 49.375 C 52.199219 45.191406 50.570312 41.191406 47.597656 38.21875 C 46.761719 37.335938 45.832031 36.589844 44.808594 35.984375 Z M 36.484375 21.296875 C 41.179688 21.296875 44.992188 25.109375 44.992188 29.804688 C 44.992188 31.988281 44.15625 34.035156 42.714844 35.613281 C 41.136719 37.335938 38.855469 38.3125 36.484375 38.3125 C 36.207031 38.3125 35.882812 38.3125 35.601562 38.265625 C 33.558594 38.03125 31.652344 37.101562 30.257812 35.613281 C 28.769531 34.035156 27.980469 31.988281 27.980469 29.804688 C 27.980469 25.109375 31.789062 21.296875 36.484375 21.296875 Z M 50.386719 53.746094 L 43.691406 53.746094 L 43.691406 50.398438 C 43.691406 49.886719 43.273438 49.46875 42.761719 49.46875 C 42.25 49.46875 41.832031 49.886719 41.832031 50.398438 L 41.832031 53.746094 L 31.140625 53.746094 L 31.140625 50.398438 C 31.140625 49.886719 30.722656 49.46875 30.210938 49.46875 C 29.699219 49.46875 29.28125 49.886719 29.28125 50.398438 L 29.28125 53.746094 L 22.585938 53.746094 L 22.585938 49.375 C 22.585938 44.445312 25.191406 39.890625 29.417969 37.425781 C 29.417969 37.425781 29.464844 37.472656 29.464844 37.472656 C 29.699219 37.660156 29.886719 37.84375 30.117188 38.03125 C 30.164062 38.03125 30.164062 38.078125 30.210938 38.078125 C 30.441406 38.265625 30.675781 38.449219 30.953125 38.589844 C 31.1875 38.730469 31.464844 38.914062 31.746094 39.007812 C 31.789062 39.007812 31.789062 39.054688 31.835938 39.054688 C 32.117188 39.195312 32.347656 39.285156 32.628906 39.425781 C 32.675781 39.425781 32.71875 39.472656 32.765625 39.472656 C 33.046875 39.566406 33.277344 39.660156 33.558594 39.75 C 33.605469 39.75 33.648438 39.796875 33.695312 39.796875 C 33.976562 39.890625 34.253906 39.9375 34.535156 39.984375 C 34.582031 39.984375 34.625 39.984375 34.671875 40.03125 C 34.953125 40.078125 35.230469 40.125 35.511719 40.171875 C 35.554688 40.171875 35.554688 40.171875 35.601562 40.171875 C 35.929688 40.214844 36.207031 40.214844 36.53125 40.214844 C 36.859375 40.214844 37.136719 40.214844 37.460938 40.171875 C 37.507812 40.171875 37.507812 40.171875 37.554688 40.171875 C 37.835938 40.125 38.113281 40.078125 38.390625 40.03125 C 38.4375 40.03125 38.484375 40.03125 38.53125 39.984375 C 38.8125 39.9375 39.089844 39.84375 39.367188 39.796875 C 39.414062 39.796875 39.460938 39.75 39.507812 39.75 C 39.785156 39.660156 40.066406 39.566406 40.296875 39.472656 C 40.34375 39.472656 40.390625 39.425781 40.4375 39.425781 C 40.714844 39.332031 40.949219 39.195312 41.226562 39.054688 C 41.226562 39.054688 41.273438 39.007812 41.273438 39.007812 C 41.554688 38.867188 41.785156 38.730469 42.066406 38.542969 C 42.296875 38.402344 42.574219 38.21875 42.808594 38.03125 C 42.855469 38.03125 42.855469 37.984375 42.902344 37.984375 C 43.132812 37.800781 43.367188 37.613281 43.550781 37.425781 C 43.550781 37.425781 43.597656 37.378906 43.597656 37.378906 C 44.621094 37.984375 45.550781 38.683594 46.339844 39.519531 C 48.945312 42.121094 50.386719 45.609375 50.386719 49.328125 Z M 36.484375 6.464844 C 19.378906 6.464844 5.476562 20.414062 5.476562 37.519531 C 5.476562 54.628906 19.378906 68.527344 36.484375 68.527344 C 53.59375 68.527344 67.492188 54.628906 67.492188 37.519531 C 67.492188 20.414062 53.59375 6.464844 36.484375 6.464844 Z M 36.484375 66.667969 C 20.402344 66.667969 7.339844 53.605469 7.339844 37.519531 C 7.339844 21.433594 20.402344 8.371094 36.484375 8.371094 C 52.570312 8.371094 65.632812 21.433594 65.632812 37.519531 C 65.632812 53.558594 52.570312 66.667969 36.484375 66.667969 Z M 36.484375 66.667969 " fill-opacity="1" fill-rule="nonzero"/></g></svg>