<svg xmlns="http://www.w3.org/2000/svg" xmlns:xlink="http://www.w3.org/1999/xlink" width="100" zoomAndPan="magnify" viewBox="0 0 75 74.999997" height="100" preserveAspectRatio="xMidYMid meet" version="1.0"><defs><clipPath id="09f1c09222"><path d="M 1.691406 4.734375 L 72.941406 4.734375 L 72.941406 69.984375 L 1.691406 69.984375 Z M 1.691406 4.734375 " clip-rule="nonzero"/></clipPath></defs><rect x="-7.5" width="90" fill="#ffffff" y="-7.5" height="89.999996" fill-opacity="1"/><rect x="-7.5" width="90" fill="#ffffff" y="-7.5" height="89.999996" fill-opacity="1"/><g clip-path="url(#09f1c09222)"><path fill="#1e334e" d="M 64.140625 20.871094 C 62.359375 20.871094 60.699219 21.390625 59.289062 22.273438 L 54.832031 16.09375 C 56.15625 14.925781 57.015625 13.234375 57.015625 11.332031 C 57.015625 7.820312 54.15625 4.964844 50.644531 4.964844 C 47.136719 4.964844 44.277344 7.820312 44.277344 11.332031 C 44.277344 13.878906 45.792969 16.066406 47.960938 17.082031 L 46.1875 22.070312 L 38.292969 18.683594 C 38.636719 17.710938 38.820312 16.691406 38.820312 15.644531 C 38.820312 10.589844 34.710938 6.480469 29.65625 6.480469 C 24.601562 6.480469 20.492188 10.589844 20.492188 15.644531 C 20.492188 16.898438 20.746094 18.09375 21.203125 19.179688 L 13.441406 23.054688 C 12.316406 21.257812 10.332031 20.050781 8.058594 20.050781 C 4.546875 20.050781 1.691406 22.90625 1.691406 26.417969 C 1.691406 29.929688 4.546875 32.785156 8.058594 32.785156 C 8.28125 32.785156 8.488281 32.742188 8.703125 32.71875 L 10.191406 40.148438 C 6.296875 41.203125 3.417969 44.757812 3.417969 48.984375 C 3.417969 54.035156 7.53125 58.148438 12.582031 58.148438 C 15.171875 58.148438 17.507812 57.0625 19.179688 55.328125 L 24.929688 60.167969 C 24.21875 61.195312 23.796875 62.4375 23.796875 63.78125 C 23.796875 67.289062 26.652344 70.148438 30.164062 70.148438 C 33.671875 70.148438 36.527344 67.289062 36.527344 63.78125 C 36.527344 61.390625 35.191406 59.328125 33.238281 58.238281 L 35.746094 52.476562 C 37.136719 53.003906 38.632812 53.304688 40.203125 53.304688 C 47.144531 53.304688 52.792969 47.660156 52.792969 40.71875 C 52.792969 39.167969 52.496094 37.6875 51.980469 36.316406 L 56.160156 34.519531 C 57.5 36.894531 59.863281 38.605469 62.648438 39.066406 L 61.957031 46.152344 C 61.957031 46.152344 61.953125 46.152344 61.949219 46.152344 C 58.4375 46.152344 55.582031 49.007812 55.582031 52.519531 C 55.582031 56.03125 58.4375 58.886719 61.949219 58.886719 C 65.460938 58.886719 68.316406 56.03125 68.316406 52.519531 C 68.316406 49.425781 66.097656 46.847656 63.167969 46.277344 L 63.859375 39.183594 C 63.953125 39.1875 64.046875 39.199219 64.140625 39.199219 C 69.195312 39.199219 73.304688 35.085938 73.304688 30.035156 C 73.304688 24.980469 69.195312 20.871094 64.140625 20.871094 Z M 58.960938 56.703125 C 59.480469 56.105469 60.25 55.558594 60.761719 55.453125 C 61.25 55.355469 61.625 55.007812 61.734375 54.550781 C 61.773438 54.40625 61.777344 54.214844 61.789062 53.839844 C 61.796875 53.648438 61.710938 53.460938 61.558594 53.34375 C 61.238281 53.09375 60.957031 52.691406 60.808594 52.265625 C 60.757812 52.117188 60.652344 52 60.519531 51.929688 C 60.519531 51.914062 60.515625 51.890625 60.511719 51.875 C 60.617188 51.757812 60.679688 51.605469 60.679688 51.445312 C 60.675781 50.746094 60.675781 50.144531 60.929688 49.886719 C 61.101562 49.714844 61.4375 49.628906 61.957031 49.628906 C 62.457031 49.628906 62.796875 49.714844 62.964844 49.886719 C 63.21875 50.144531 63.21875 50.746094 63.21875 51.457031 C 63.21875 51.621094 63.28125 51.769531 63.382812 51.878906 C 63.382812 51.894531 63.378906 51.914062 63.375 51.929688 C 63.246094 52 63.140625 52.117188 63.085938 52.265625 C 62.9375 52.691406 62.660156 53.09375 62.339844 53.34375 C 62.1875 53.460938 62.101562 53.695312 62.105469 53.886719 C 62.117188 54.214844 62.125 54.40625 62.160156 54.542969 C 62.273438 55.007812 62.648438 55.355469 63.132812 55.453125 C 63.644531 55.558594 64.414062 56.105469 64.9375 56.703125 C 64.089844 57.308594 63.066406 57.671875 61.949219 57.671875 C 60.832031 57.671875 59.804688 57.308594 58.960938 56.703125 Z M 67.101562 52.519531 C 67.101562 53.804688 66.613281 54.964844 65.832031 55.867188 C 65.207031 55.167969 64.222656 54.4375 63.339844 54.265625 C 63.335938 54.226562 63.328125 54.164062 63.328125 54.089844 C 63.65625 53.769531 63.9375 53.363281 64.132812 52.921875 C 64.355469 52.761719 64.523438 52.472656 64.589844 52.105469 C 64.648438 51.746094 64.585938 51.425781 64.429688 51.195312 C 64.429688 50.363281 64.378906 49.585938 63.824219 49.027344 C 63.414062 48.617188 62.804688 48.417969 61.9375 48.417969 C 61.089844 48.417969 60.480469 48.617188 60.070312 49.027344 C 59.519531 49.585938 59.46875 50.355469 59.464844 51.195312 C 59.308594 51.425781 59.246094 51.75 59.308594 52.113281 C 59.371094 52.476562 59.539062 52.761719 59.765625 52.925781 C 59.957031 53.363281 60.234375 53.769531 60.566406 54.085938 C 60.558594 54.160156 60.546875 54.222656 60.523438 54.261719 C 59.671875 54.4375 58.691406 55.167969 58.0625 55.867188 C 57.285156 54.964844 56.792969 53.804688 56.792969 52.519531 C 56.792969 49.679688 59.105469 47.367188 61.949219 47.367188 C 64.789062 47.367188 67.101562 49.679688 67.101562 52.519531 Z M 50.257812 12.15625 C 49.9375 11.90625 49.65625 11.503906 49.507812 11.078125 C 49.453125 10.929688 49.351562 10.8125 49.21875 10.746094 C 49.214844 10.726562 49.210938 10.707031 49.207031 10.6875 C 49.3125 10.574219 49.375 10.417969 49.375 10.257812 C 49.375 9.558594 49.375 8.957031 49.628906 8.699219 C 49.796875 8.53125 50.136719 8.445312 50.65625 8.441406 C 51.15625 8.445312 51.496094 8.53125 51.664062 8.699219 C 51.917969 8.957031 51.917969 9.558594 51.914062 10.273438 C 51.914062 10.433594 51.980469 10.582031 52.082031 10.691406 C 52.078125 10.707031 52.078125 10.726562 52.074219 10.742188 C 51.941406 10.8125 51.835938 10.929688 51.785156 11.078125 C 51.636719 11.503906 51.355469 11.90625 51.035156 12.15625 C 50.886719 12.273438 50.800781 12.457031 50.804688 12.652344 C 50.8125 13.035156 50.824219 13.21875 50.855469 13.355469 C 50.96875 13.820312 51.34375 14.167969 51.832031 14.265625 C 52.34375 14.371094 53.113281 14.917969 53.632812 15.515625 C 52.789062 16.121094 51.761719 16.484375 50.644531 16.484375 C 49.53125 16.484375 48.503906 16.121094 47.660156 15.515625 C 48.179688 14.917969 48.949219 14.371094 49.460938 14.265625 C 49.949219 14.167969 50.324219 13.820312 50.433594 13.355469 C 50.46875 13.21875 50.480469 13.035156 50.488281 12.652344 C 50.492188 12.457031 50.40625 12.273438 50.257812 12.15625 Z M 45.492188 11.332031 C 45.492188 8.492188 47.804688 6.179688 50.644531 6.179688 C 53.488281 6.179688 55.800781 8.492188 55.800781 11.332031 C 55.800781 12.617188 55.3125 13.777344 54.53125 14.679688 C 53.902344 13.976562 52.917969 13.25 52.039062 13.082031 C 52.03125 13.042969 52.027344 12.976562 52.023438 12.902344 C 52.355469 12.585938 52.636719 12.175781 52.828125 11.734375 C 53.054688 11.574219 53.222656 11.285156 53.289062 10.921875 C 53.347656 10.5625 53.285156 10.238281 53.128906 10.007812 C 53.128906 9.175781 53.078125 8.402344 52.523438 7.84375 C 52.113281 7.429688 51.503906 7.230469 50.636719 7.230469 C 49.789062 7.230469 49.179688 7.429688 48.769531 7.84375 C 48.214844 8.398438 48.164062 9.167969 48.164062 10.007812 C 48.007812 10.238281 47.945312 10.566406 48.003906 10.925781 C 48.070312 11.289062 48.238281 11.578125 48.464844 11.738281 C 48.65625 12.175781 48.933594 12.582031 49.261719 12.898438 C 49.257812 12.972656 49.246094 13.035156 49.222656 13.078125 C 48.371094 13.246094 47.390625 13.976562 46.761719 14.679688 C 45.980469 13.777344 45.492188 12.617188 45.492188 11.332031 Z M 49.101562 17.488281 C 49.597656 17.613281 50.109375 17.699219 50.644531 17.699219 C 51.816406 17.699219 52.902344 17.359375 53.847656 16.804688 L 58.300781 22.980469 C 57.253906 23.847656 56.40625 24.953125 55.828125 26.203125 L 47.304688 22.550781 Z M 40.203125 28.132812 C 33.265625 28.132812 27.617188 33.777344 27.617188 40.71875 C 27.617188 41.761719 27.757812 42.769531 28 43.738281 L 21.15625 45.785156 C 20.425781 43.832031 19.050781 42.195312 17.285156 41.132812 L 26.03125 24.054688 C 27.144531 24.539062 28.367188 24.808594 29.65625 24.808594 C 33.121094 24.808594 36.242188 22.851562 37.800781 19.796875 L 45.78125 23.214844 L 43.839844 28.671875 C 42.6875 28.324219 41.46875 28.132812 40.203125 28.132812 Z M 28.894531 17.101562 C 28.378906 16.695312 27.925781 16.046875 27.683594 15.367188 C 27.617188 15.175781 27.464844 15.039062 27.28125 14.984375 C 27.261719 14.941406 27.234375 14.875 27.21875 14.785156 C 27.203125 14.691406 27.207031 14.617188 27.210938 14.566406 C 27.375 14.449219 27.476562 14.25 27.476562 14.042969 C 27.472656 13.109375 27.472656 12.300781 27.746094 11.785156 C 27.925781 11.449219 28.304688 11.058594 29.667969 11.058594 C 31.007812 11.058594 31.386719 11.449219 31.566406 11.785156 C 31.839844 12.300781 31.839844 13.109375 31.835938 14.070312 C 31.835938 14.277344 31.9375 14.460938 32.101562 14.574219 C 32.109375 14.621094 32.109375 14.691406 32.09375 14.777344 C 32.078125 14.871094 32.050781 14.9375 32.03125 14.984375 C 31.847656 15.039062 31.695312 15.175781 31.628906 15.367188 C 31.386719 16.046875 30.933594 16.695312 30.417969 17.101562 C 30.265625 17.21875 30.179688 17.421875 30.1875 17.613281 C 30.199219 18.089844 30.207031 18.394531 30.257812 18.582031 C 30.394531 19.15625 30.863281 19.589844 31.476562 19.714844 C 32.359375 19.890625 33.730469 20.882812 34.53125 21.898438 C 33.164062 22.964844 31.46875 23.59375 29.65625 23.59375 C 27.816406 23.59375 26.125 22.960938 24.777344 21.90625 C 25.574219 20.886719 26.953125 19.890625 27.835938 19.714844 C 28.449219 19.589844 28.917969 19.15625 29.058594 18.585938 C 29.105469 18.394531 29.113281 18.089844 29.128906 17.59375 C 29.132812 17.402344 29.046875 17.21875 28.894531 17.101562 Z M 29.65625 7.695312 C 34.039062 7.695312 37.605469 11.261719 37.605469 15.644531 C 37.605469 16.730469 37.390625 17.785156 36.964844 18.777344 C 36.589844 19.652344 36.058594 20.417969 35.429688 21.082031 C 34.433594 19.84375 32.875 18.757812 31.714844 18.523438 C 31.660156 18.511719 31.476562 18.460938 31.4375 18.296875 C 31.417969 18.207031 31.410156 18.042969 31.40625 17.855469 C 31.929688 17.375 32.375 16.738281 32.664062 16.046875 C 32.96875 15.859375 33.199219 15.480469 33.289062 14.984375 C 33.375 14.480469 33.277344 14.042969 33.050781 13.769531 C 33.050781 12.816406 33.019531 11.929688 32.636719 11.214844 C 32.144531 10.296875 31.175781 9.847656 29.640625 9.84375 C 28.136719 9.847656 27.167969 10.296875 26.675781 11.214844 C 26.296875 11.921875 26.265625 12.808594 26.261719 13.769531 C 26.035156 14.046875 25.941406 14.484375 26.023438 14.992188 C 26.113281 15.484375 26.347656 15.863281 26.648438 16.046875 C 26.9375 16.738281 27.382812 17.375 27.90625 17.855469 C 27.902344 18.039062 27.894531 18.207031 27.878906 18.292969 C 27.835938 18.460938 27.652344 18.511719 27.597656 18.523438 C 26.4375 18.757812 24.875 19.84375 23.878906 21.089844 C 22.535156 19.664062 21.707031 17.75 21.707031 15.644531 C 21.707031 11.261719 25.273438 7.695312 29.65625 7.695312 Z M 2.90625 26.417969 C 2.90625 23.574219 5.21875 21.265625 8.058594 21.265625 C 10.902344 21.265625 13.210938 23.574219 13.210938 26.417969 C 13.210938 27.699219 12.722656 28.863281 11.945312 29.765625 C 11.316406 29.0625 10.332031 28.335938 9.453125 28.167969 C 9.445312 28.125 9.441406 28.0625 9.4375 27.988281 C 9.769531 27.667969 10.050781 27.261719 10.246094 26.820312 C 10.46875 26.65625 10.636719 26.371094 10.703125 26.003906 C 10.761719 25.636719 10.699219 25.3125 10.542969 25.085938 C 10.535156 23.847656 10.386719 22.316406 8.046875 22.3125 C 6.953125 22.316406 6.246094 22.652344 5.878906 23.34375 C 5.609375 23.847656 5.578125 24.445312 5.578125 25.09375 C 5.421875 25.324219 5.359375 25.648438 5.417969 26.011719 C 5.484375 26.375 5.652344 26.660156 5.875 26.824219 C 6.066406 27.261719 6.347656 27.664062 6.675781 27.984375 C 6.667969 28.058594 6.65625 28.121094 6.632812 28.160156 C 5.78125 28.332031 4.800781 29.0625 4.175781 29.765625 C 3.394531 28.863281 2.90625 27.703125 2.90625 26.417969 Z M 5.074219 30.601562 C 5.59375 30.003906 6.359375 29.453125 6.871094 29.351562 C 7.363281 29.253906 7.734375 28.90625 7.847656 28.441406 C 7.882812 28.300781 7.890625 28.109375 7.902344 27.738281 C 7.90625 27.542969 7.820312 27.359375 7.667969 27.242188 C 7.347656 26.992188 7.070312 26.589844 6.917969 26.164062 C 6.867188 26.015625 6.761719 25.898438 6.632812 25.828125 C 6.628906 25.8125 6.625 25.789062 6.621094 25.769531 C 6.726562 25.65625 6.789062 25.503906 6.789062 25.34375 C 6.789062 24.761719 6.785156 24.214844 6.949219 23.914062 C 7.003906 23.808594 7.152344 23.53125 8.066406 23.527344 C 9.285156 23.53125 9.332031 23.875 9.328125 25.355469 C 9.328125 25.515625 9.390625 25.664062 9.496094 25.777344 C 9.492188 25.792969 9.488281 25.8125 9.488281 25.828125 C 9.355469 25.898438 9.25 26.015625 9.199219 26.164062 C 9.050781 26.589844 8.769531 26.992188 8.449219 27.242188 C 8.296875 27.359375 8.210938 27.558594 8.21875 27.75 C 8.226562 28.09375 8.234375 28.296875 8.269531 28.441406 C 8.382812 28.90625 8.757812 29.253906 9.246094 29.351562 C 9.757812 29.453125 10.527344 30.003906 11.046875 30.601562 C 10.203125 31.207031 9.175781 31.570312 8.058594 31.570312 C 6.945312 31.570312 5.917969 31.207031 5.074219 30.601562 Z M 9.894531 32.484375 C 12.507812 31.691406 14.425781 29.285156 14.425781 26.417969 C 14.425781 25.613281 14.261719 24.847656 13.988281 24.140625 L 21.753906 20.261719 C 22.535156 21.589844 23.636719 22.703125 24.953125 23.496094 L 16.207031 40.574219 C 15.09375 40.089844 13.871094 39.820312 12.582031 39.820312 C 12.175781 39.820312 11.777344 39.855469 11.382812 39.910156 Z M 4.632812 48.984375 C 4.632812 44.601562 8.199219 41.035156 12.582031 41.035156 C 16.964844 41.035156 20.53125 44.601562 20.53125 48.984375 C 20.53125 51.089844 19.703125 53.003906 18.359375 54.429688 C 17.363281 53.183594 15.800781 52.097656 14.640625 51.863281 C 14.585938 51.851562 14.402344 51.804688 14.359375 51.636719 C 14.34375 51.546875 14.335938 51.382812 14.332031 51.195312 C 14.855469 50.714844 15.300781 50.078125 15.589844 49.386719 C 15.890625 49.199219 16.125 48.820312 16.214844 48.324219 C 16.296875 47.820312 16.203125 47.382812 15.976562 47.109375 C 15.976562 46.160156 15.941406 45.269531 15.5625 44.554688 C 15.070312 43.636719 14.101562 43.1875 12.566406 43.183594 C 11.0625 43.1875 10.09375 43.636719 9.601562 44.554688 C 9.222656 45.261719 9.1875 46.148438 9.1875 47.109375 C 8.960938 47.386719 8.867188 47.824219 8.949219 48.332031 C 9.039062 48.824219 9.269531 49.203125 9.574219 49.386719 C 9.863281 50.078125 10.308594 50.714844 10.832031 51.195312 C 10.828125 51.378906 10.820312 51.546875 10.804688 51.632812 C 10.761719 51.804688 10.578125 51.851562 10.523438 51.863281 C 9.363281 52.097656 7.800781 53.183594 6.804688 54.425781 C 5.460938 53.003906 4.632812 51.089844 4.632812 48.984375 Z M 7.703125 55.246094 C 8.5 54.226562 9.878906 53.230469 10.761719 53.054688 C 11.375 52.929688 11.84375 52.496094 11.980469 51.925781 C 12.03125 51.734375 12.039062 51.433594 12.054688 50.9375 C 12.058594 50.742188 11.972656 50.558594 11.820312 50.441406 C 11.304688 50.035156 10.851562 49.386719 10.609375 48.707031 C 10.542969 48.515625 10.390625 48.378906 10.207031 48.324219 C 10.1875 48.28125 10.160156 48.214844 10.144531 48.128906 C 10.128906 48.03125 10.128906 47.957031 10.136719 47.90625 C 10.296875 47.789062 10.402344 47.589844 10.402344 47.382812 C 10.398438 46.449219 10.398438 45.640625 10.671875 45.125 C 10.851562 44.789062 11.230469 44.398438 12.59375 44.398438 C 13.933594 44.398438 14.3125 44.789062 14.492188 45.125 C 14.765625 45.640625 14.765625 46.449219 14.761719 47.410156 C 14.761719 47.617188 14.863281 47.804688 15.027344 47.914062 C 15.03125 47.960938 15.035156 48.03125 15.019531 48.117188 C 15.003906 48.210938 14.976562 48.28125 14.953125 48.324219 C 14.773438 48.378906 14.621094 48.515625 14.554688 48.707031 C 14.3125 49.386719 13.859375 50.035156 13.34375 50.441406 C 13.191406 50.558594 13.105469 50.761719 13.113281 50.953125 C 13.125 51.433594 13.132812 51.734375 13.179688 51.921875 C 13.320312 52.496094 13.789062 52.929688 14.402344 53.054688 C 15.285156 53.230469 16.664062 54.226562 17.460938 55.246094 C 16.113281 56.300781 14.421875 56.933594 12.582031 56.933594 C 10.742188 56.933594 9.050781 56.300781 7.703125 55.246094 Z M 27.175781 67.964844 C 27.695312 67.367188 28.464844 66.816406 28.976562 66.714844 C 29.464844 66.617188 29.839844 66.265625 29.949219 65.8125 C 29.984375 65.667969 29.992188 65.476562 30.003906 65.101562 C 30.011719 64.90625 29.925781 64.722656 29.769531 64.605469 C 29.453125 64.355469 29.171875 63.953125 29.023438 63.527344 C 28.96875 63.378906 28.867188 63.261719 28.734375 63.191406 C 28.730469 63.171875 28.726562 63.152344 28.726562 63.132812 C 28.832031 63.019531 28.894531 62.867188 28.894531 62.703125 C 28.890625 62.007812 28.890625 61.402344 29.144531 61.144531 C 29.3125 60.976562 29.652344 60.890625 30.171875 60.890625 C 30.671875 60.890625 31.011719 60.976562 31.179688 61.144531 C 31.433594 61.402344 31.433594 62.007812 31.429688 62.71875 C 31.429688 62.878906 31.492188 63.027344 31.597656 63.140625 C 31.597656 63.15625 31.59375 63.175781 31.589844 63.191406 C 31.457031 63.261719 31.355469 63.378906 31.300781 63.527344 C 31.152344 63.953125 30.871094 64.355469 30.550781 64.605469 C 30.398438 64.722656 30.316406 64.953125 30.320312 65.148438 C 30.332031 65.476562 30.339844 65.667969 30.371094 65.800781 C 30.484375 66.265625 30.859375 66.617188 31.347656 66.714844 C 31.859375 66.816406 32.628906 67.367188 33.148438 67.960938 C 32.304688 68.566406 31.277344 68.933594 30.164062 68.933594 C 29.046875 68.933594 28.019531 68.566406 27.175781 67.964844 Z M 35.316406 63.78125 C 35.316406 65.0625 34.828125 66.226562 34.046875 67.128906 C 33.417969 66.425781 32.433594 65.695312 31.554688 65.527344 C 31.546875 65.484375 31.542969 65.425781 31.542969 65.351562 C 31.871094 65.03125 32.152344 64.625 32.347656 64.183594 C 32.570312 64.023438 32.738281 63.734375 32.804688 63.367188 C 32.863281 63.007812 32.800781 62.683594 32.644531 62.457031 C 32.640625 61.621094 32.59375 60.847656 32.039062 60.289062 C 31.628906 59.878906 31.019531 59.679688 30.152344 59.675781 C 29.304688 59.679688 28.695312 59.878906 28.285156 60.289062 C 27.734375 60.84375 27.683594 61.617188 27.679688 62.457031 C 27.523438 62.6875 27.460938 63.011719 27.523438 63.375 C 27.585938 63.738281 27.753906 64.023438 27.980469 64.1875 C 28.171875 64.625 28.449219 65.027344 28.78125 65.347656 C 28.773438 65.421875 28.761719 65.484375 28.738281 65.523438 C 27.882812 65.695312 26.90625 66.425781 26.277344 67.128906 C 25.496094 66.226562 25.007812 65.0625 25.007812 63.78125 C 25.007812 60.9375 27.320312 58.625 30.164062 58.625 C 33.003906 58.625 35.316406 60.9375 35.316406 63.78125 Z M 32.125 57.753906 C 31.503906 57.550781 30.851562 57.414062 30.164062 57.414062 C 28.429688 57.414062 26.859375 58.113281 25.710938 59.238281 L 19.957031 54.398438 C 21.074219 52.878906 21.746094 51.011719 21.746094 48.984375 C 21.746094 48.28125 21.660156 47.601562 21.507812 46.945312 L 28.347656 44.902344 C 29.445312 48 31.71875 50.542969 34.636719 51.988281 Z M 33.007812 49.515625 C 33.03125 49.496094 33.0625 49.484375 33.082031 49.457031 C 34.234375 47.921875 36.261719 46.449219 37.609375 46.179688 C 38.371094 46.027344 38.957031 45.488281 39.128906 44.773438 C 39.1875 44.539062 39.203125 44.140625 39.222656 43.445312 C 39.226562 43.253906 39.140625 43.066406 38.988281 42.949219 C 38.230469 42.355469 37.566406 41.40625 37.214844 40.410156 C 37.140625 40.191406 36.949219 40.039062 36.726562 40.007812 C 36.671875 39.9375 36.59375 39.78125 36.554688 39.558594 C 36.515625 39.324219 36.539062 39.144531 36.566406 39.0625 C 36.769531 38.953125 36.910156 38.722656 36.910156 38.484375 C 36.90625 37.136719 36.902344 35.976562 37.316406 35.203125 C 37.578125 34.710938 38.160156 34.058594 40.222656 34.054688 C 42.246094 34.058594 42.832031 34.710938 43.09375 35.203125 C 43.507812 35.976562 43.503906 37.136719 43.5 38.515625 C 43.5 38.753906 43.640625 38.964844 43.847656 39.066406 C 43.871094 39.148438 43.894531 39.324219 43.855469 39.546875 C 43.816406 39.78125 43.734375 39.9375 43.683594 40.007812 C 43.460938 40.039062 43.269531 40.191406 43.191406 40.410156 C 42.84375 41.40625 42.179688 42.355469 41.421875 42.949219 C 41.269531 43.066406 41.183594 43.25 41.1875 43.445312 C 41.207031 44.113281 41.21875 44.535156 41.28125 44.773438 C 41.453125 45.488281 42.039062 46.027344 42.800781 46.179688 C 44.144531 46.449219 46.175781 47.921875 47.328125 49.457031 C 47.347656 49.480469 47.375 49.496094 47.398438 49.519531 C 45.4375 51.125 42.933594 52.09375 40.203125 52.09375 C 37.476562 52.09375 34.96875 51.125 33.007812 49.515625 Z M 48.285156 48.710938 C 46.957031 46.949219 44.65625 45.316406 43.039062 44.988281 C 42.738281 44.929688 42.519531 44.738281 42.457031 44.484375 C 42.433594 44.378906 42.417969 44.023438 42.410156 43.707031 C 43.175781 43.035156 43.820312 42.117188 44.222656 41.113281 C 44.621094 40.910156 44.933594 40.417969 45.054688 39.753906 C 45.164062 39.082031 45.027344 38.511719 44.714844 38.1875 C 44.714844 36.851562 44.683594 35.601562 44.164062 34.628906 C 43.519531 33.429688 42.234375 32.84375 40.183594 32.839844 C 38.175781 32.84375 36.886719 33.429688 36.246094 34.632812 C 35.730469 35.597656 35.695312 36.835938 35.695312 38.1875 C 35.382812 38.511719 35.246094 39.085938 35.355469 39.765625 C 35.476562 40.417969 35.789062 40.910156 36.183594 41.113281 C 36.589844 42.117188 37.234375 43.035156 38 43.707031 C 37.988281 44.023438 37.976562 44.378906 37.953125 44.484375 C 37.886719 44.738281 37.671875 44.929688 37.371094 44.988281 C 35.75 45.316406 33.453125 46.949219 32.125 48.710938 C 30.089844 46.65625 28.832031 43.832031 28.832031 40.71875 C 28.832031 34.449219 33.933594 29.34375 40.203125 29.34375 C 46.476562 29.34375 51.578125 34.449219 51.578125 40.71875 C 51.578125 43.832031 50.320312 46.65625 48.285156 48.710938 Z M 51.5 35.203125 C 50.148438 32.449219 47.832031 30.253906 44.984375 29.078125 L 46.898438 23.695312 L 55.386719 27.335938 C 55.121094 28.1875 54.980469 29.09375 54.980469 30.035156 C 54.980469 31.230469 55.214844 32.375 55.636719 33.421875 Z M 59.261719 36.296875 C 60.058594 35.277344 61.4375 34.28125 62.324219 34.105469 C 62.9375 33.980469 63.402344 33.546875 63.542969 32.96875 C 63.589844 32.78125 63.601562 32.472656 63.613281 31.984375 C 63.617188 31.792969 63.53125 31.609375 63.378906 31.492188 C 62.863281 31.085938 62.410156 30.4375 62.171875 29.753906 C 62.105469 29.566406 61.953125 29.425781 61.769531 29.375 C 61.746094 29.332031 61.722656 29.265625 61.707031 29.175781 C 61.691406 29.082031 61.691406 29.007812 61.699219 28.957031 C 61.859375 28.839844 61.960938 28.644531 61.960938 28.4375 C 61.960938 27.5 61.957031 26.691406 62.230469 26.175781 C 62.410156 25.839844 62.789062 25.449219 64.15625 25.449219 C 65.492188 25.449219 65.871094 25.839844 66.050781 26.175781 C 66.328125 26.691406 66.324219 27.5 66.324219 28.460938 C 66.324219 28.667969 66.425781 28.851562 66.589844 28.960938 C 66.59375 29.011719 66.59375 29.082031 66.578125 29.167969 C 66.5625 29.261719 66.535156 29.328125 66.515625 29.375 C 66.332031 29.425781 66.179688 29.566406 66.113281 29.753906 C 65.875 30.4375 65.421875 31.085938 64.902344 31.492188 C 64.75 31.609375 64.664062 31.792969 64.671875 31.984375 C 64.683594 32.472656 64.695312 32.78125 64.742188 32.96875 C 64.882812 33.546875 65.347656 33.980469 65.960938 34.105469 C 66.847656 34.28125 68.222656 35.273438 69.023438 36.296875 C 67.671875 37.351562 65.980469 37.984375 64.140625 37.984375 C 62.300781 37.984375 60.609375 37.351562 59.261719 36.296875 Z M 69.917969 35.476562 C 68.921875 34.234375 67.363281 33.148438 66.199219 32.914062 C 66.144531 32.902344 65.960938 32.851562 65.921875 32.6875 C 65.902344 32.601562 65.898438 32.433594 65.890625 32.242188 C 66.417969 31.765625 66.859375 31.128906 67.148438 30.4375 C 67.453125 30.253906 67.6875 29.871094 67.777344 29.375 C 67.859375 28.871094 67.765625 28.433594 67.535156 28.160156 C 67.535156 27.207031 67.503906 26.320312 67.125 25.605469 C 66.632812 24.683594 65.664062 24.238281 64.125 24.234375 C 62.621094 24.238281 61.652344 24.683594 61.160156 25.605469 C 60.78125 26.3125 60.75 27.199219 60.746094 28.160156 C 60.519531 28.4375 60.425781 28.875 60.507812 29.382812 C 60.597656 29.875 60.832031 30.253906 61.132812 30.4375 C 61.425781 31.128906 61.867188 31.765625 62.394531 32.242188 C 62.386719 32.433594 62.382812 32.597656 62.363281 32.683594 C 62.324219 32.851562 62.140625 32.902344 62.082031 32.914062 C 60.921875 33.148438 59.363281 34.234375 58.363281 35.476562 C 57.023438 34.054688 56.191406 32.140625 56.191406 30.035156 C 56.191406 25.652344 59.757812 22.085938 64.140625 22.085938 C 68.523438 22.085938 72.089844 25.652344 72.089844 30.035156 C 72.089844 32.140625 71.261719 34.054688 69.917969 35.476562 Z M 69.917969 35.476562 " fill-opacity="1" fill-rule="nonzero"/></g></svg>