<svg xmlns="http://www.w3.org/2000/svg" xmlns:xlink="http://www.w3.org/1999/xlink" width="100" zoomAndPan="magnify" viewBox="0 0 75 74.999997" height="100" preserveAspectRatio="xMidYMid meet" version="1.0"><defs><clipPath id="ca3cb20b3e"><path d="M 14 6.558594 L 21 6.558594 L 21 13 L 14 13 Z M 14 6.558594 " clip-rule="nonzero"/></clipPath><clipPath id="52aaa50f23"><path d="M 53 6.558594 L 61 6.558594 L 61 13 L 53 13 Z M 53 6.558594 " clip-rule="nonzero"/></clipPath></defs><rect x="-7.5" width="90" fill="#ffffff" y="-7.5" height="89.999996" fill-opacity="1"/><rect x="-7.5" width="90" fill="#ffffff" y="-7.5" height="89.999996" fill-opacity="1"/><path fill="#1e334e" d="M 37.503906 41.726562 C 34.410156 41.726562 31.894531 39.207031 31.894531 36.109375 L 31.894531 33.867188 C 31.894531 30.773438 34.410156 28.257812 37.503906 28.257812 C 40.601562 28.257812 43.117188 30.773438 43.117188 33.867188 L 43.117188 36.109375 C 43.117188 39.207031 40.601562 41.726562 37.503906 41.726562 Z M 37.503906 30.503906 C 35.648438 30.503906 34.136719 32.011719 34.136719 33.867188 L 34.136719 36.113281 C 34.136719 37.972656 35.648438 39.480469 37.503906 39.480469 C 39.363281 39.480469 40.871094 37.96875 40.871094 36.113281 L 40.871094 33.867188 C 40.871094 32.011719 39.363281 30.503906 37.503906 30.503906 Z M 37.503906 30.503906 " fill-opacity="1" fill-rule="nonzero"/><path fill="#1e334e" d="M 46.484375 51.828125 L 44.238281 51.828125 L 44.238281 48.460938 C 44.238281 44.746094 41.21875 41.726562 37.503906 41.726562 C 33.792969 41.726562 30.773438 44.746094 30.773438 48.460938 L 30.773438 51.828125 L 28.527344 51.828125 L 28.527344 48.460938 C 28.527344 43.511719 32.554688 39.480469 37.503906 39.480469 C 42.457031 39.480469 46.484375 43.511719 46.484375 48.460938 Z M 46.484375 51.828125 " fill-opacity="1" fill-rule="nonzero"/><path fill="#1e334e" d="M 55.460938 67.542969 C 54.871094 67.542969 54.273438 67.382812 53.789062 67.097656 C 53.566406 66.957031 40.476562 58.746094 37.503906 56.882812 C 34.527344 58.746094 21.414062 66.960938 21.214844 67.082031 C 18.761719 68.445312 16.179688 66.589844 16.179688 64.171875 C 16.179688 64.0625 16.191406 63.894531 16.199219 63.789062 L 18.765625 46.367188 L 6.988281 33.230469 C 6.023438 32.109375 5.8125 30.597656 6.421875 29.277344 C 7.027344 27.957031 8.308594 27.136719 9.765625 27.136719 L 26.691406 27.136719 L 34.203125 11.242188 C 34.84375 9.960938 36.105469 9.179688 37.503906 9.179688 C 38.902344 9.179688 40.164062 9.960938 40.796875 11.222656 L 48.316406 27.136719 L 65.246094 27.136719 C 66.699219 27.136719 67.980469 27.957031 68.585938 29.277344 C 69.195312 30.597656 68.984375 32.105469 68.039062 33.210938 L 56.238281 46.367188 L 58.800781 63.753906 C 58.816406 63.921875 58.828125 64.066406 58.828125 64.171875 C 58.828125 66.03125 57.316406 67.542969 55.460938 67.542969 Z M 37.503906 54.230469 L 38.101562 54.605469 C 38.101562 54.605469 54.734375 65.039062 54.960938 65.179688 C 55.066406 65.242188 55.277344 65.296875 55.460938 65.296875 C 56.082031 65.296875 56.585938 64.792969 56.585938 64.171875 C 56.585938 64.125 56.578125 64.058594 56.574219 64.015625 L 53.867188 45.65625 L 66.355469 31.730469 C 66.710938 31.3125 66.792969 30.742188 66.550781 30.214844 C 66.308594 29.695312 65.824219 29.378906 65.246094 29.378906 L 46.894531 29.378906 L 38.777344 12.203125 C 38.492188 11.632812 37.933594 11.421875 37.507812 11.421875 C 37.082031 11.421875 36.519531 11.632812 36.222656 12.226562 L 28.117188 29.378906 L 9.765625 29.378906 C 9.191406 29.378906 8.703125 29.691406 8.460938 30.214844 C 8.222656 30.738281 8.300781 31.3125 8.675781 31.75 L 21.144531 45.65625 L 18.429688 64.066406 C 18.429688 64.066406 18.425781 64.128906 18.425781 64.171875 C 18.425781 64.972656 19.277344 65.585938 20.082031 65.148438 C 20.25 65.039062 36.910156 54.605469 36.910156 54.605469 L 37.507812 54.230469 Z M 37.503906 54.230469 " fill-opacity="1" fill-rule="nonzero"/><path fill="#1e334e" d="M 7.203125 65.296875 L 64.441406 65.296875 L 64.441406 67.542969 L 7.203125 67.542969 Z M 7.203125 65.296875 " fill-opacity="1" fill-rule="nonzero"/><path fill="#1e334e" d="M 66.6875 65.296875 L 68.929688 65.296875 L 68.929688 67.542969 L 66.6875 67.542969 Z M 66.6875 65.296875 " fill-opacity="1" fill-rule="nonzero"/><path fill="#1e334e" d="M 9.445312 20.402344 L 15.058594 20.402344 L 15.058594 22.648438 L 9.445312 22.648438 Z M 9.445312 20.402344 " fill-opacity="1" fill-rule="nonzero"/><g clip-path="url(#ca3cb20b3e)"><path fill="#1e334e" d="M 14.746094 8.210938 L 16.335938 6.621094 L 20.9375 11.226562 L 19.351562 12.8125 Z M 14.746094 8.210938 " fill-opacity="1" fill-rule="nonzero"/></g><path fill="#1e334e" d="M 59.953125 20.402344 L 65.566406 20.402344 L 65.566406 22.648438 L 59.953125 22.648438 Z M 59.953125 20.402344 " fill-opacity="1" fill-rule="nonzero"/><g clip-path="url(#52aaa50f23)"><path fill="#1e334e" d="M 53.984375 11.316406 L 58.738281 6.5625 L 60.324219 8.148438 L 55.570312 12.902344 Z M 53.984375 11.316406 " fill-opacity="1" fill-rule="nonzero"/></g></svg>