<svg xmlns="http://www.w3.org/2000/svg" xmlns:xlink="http://www.w3.org/1999/xlink" width="100" zoomAndPan="magnify" viewBox="0 0 75 74.999997" height="100" preserveAspectRatio="xMidYMid meet" version="1.0"><defs><clipPath id="bf59c726a9"><path d="M 12.460938 3.308594 L 62 3.308594 L 62 52.828125 L 12.460938 52.828125 Z M 12.460938 3.308594 " clip-rule="nonzero"/></clipPath><clipPath id="3f1a9ed733"><path d="M 40.28125 46.148438 L 62.511719 46.148438 L 62.511719 71.558594 L 40.28125 71.558594 Z M 40.28125 46.148438 " clip-rule="nonzero"/></clipPath><clipPath id="866b3295b0"><path d="M 12.460938 46.148438 L 34.714844 46.148438 L 34.714844 71.558594 L 12.460938 71.558594 Z M 12.460938 46.148438 " clip-rule="nonzero"/></clipPath></defs><rect x="-7.5" width="90" fill="#ffffff" y="-7.5" height="89.999996" fill-opacity="1"/><rect x="-7.5" width="90" fill="#ffffff" y="-7.5" height="89.999996" fill-opacity="1"/><path fill="#1e334e" d="M 38.378906 15.0625 L 42.425781 22.320312 L 50.664062 23.941406 L 50.476562 24.90625 L 50.664062 23.941406 C 51.195312 24.046875 51.542969 24.566406 51.4375 25.097656 C 51.398438 25.304688 51.292969 25.484375 51.148438 25.621094 L 45.488281 31.726562 L 46.488281 40.058594 C 46.554688 40.59375 46.167969 41.085938 45.632812 41.148438 C 45.421875 41.175781 45.214844 41.132812 45.042969 41.039062 L 37.488281 37.539062 L 29.871094 41.066406 C 29.378906 41.296875 28.796875 41.078125 28.566406 40.585938 C 28.484375 40.402344 28.460938 40.203125 28.488281 40.015625 L 29.488281 31.726562 L 23.78125 25.574219 L 24.5 24.90625 L 23.78125 25.574219 C 23.410156 25.175781 23.433594 24.554688 23.828125 24.1875 C 23.980469 24.046875 24.164062 23.960938 24.355469 23.933594 L 32.546875 22.320312 L 36.632812 14.996094 L 37.488281 15.472656 L 36.628906 14.992188 C 36.890625 14.519531 37.492188 14.347656 37.964844 14.613281 C 38.15625 14.71875 38.296875 14.878906 38.378906 15.0625 Z M 41.796875 23.199219 L 40.9375 23.671875 L 37.488281 17.480469 L 34.074219 23.605469 C 33.945312 23.882812 33.691406 24.097656 33.367188 24.160156 L 33.175781 23.199219 L 33.367188 24.160156 L 26.414062 25.53125 L 31.1875 30.675781 C 31.410156 30.882812 31.53125 31.1875 31.492188 31.507812 L 31.488281 31.507812 L 30.644531 38.546875 L 37.019531 35.59375 C 37.28125 35.449219 37.605469 35.429688 37.898438 35.566406 L 44.328125 38.546875 L 43.488281 31.550781 C 43.441406 31.261719 43.523438 30.953125 43.738281 30.722656 L 44.460938 31.390625 L 43.738281 30.722656 L 48.5625 25.53125 L 41.648438 24.167969 C 41.359375 24.125 41.089844 23.953125 40.9375 23.675781 L 41.796875 23.199219 " fill-opacity="1" fill-rule="nonzero"/><g clip-path="url(#bf59c726a9)"><path fill="#1e334e" d="M 37.488281 3.308594 C 44.257812 3.308594 50.382812 6.054688 54.820312 10.488281 C 59.253906 14.925781 62 21.054688 62 27.824219 C 62 34.59375 59.253906 40.722656 54.820312 45.15625 C 50.382812 49.59375 44.257812 52.335938 37.488281 52.335938 C 30.71875 52.335938 24.589844 49.59375 20.152344 45.15625 C 15.71875 40.722656 12.972656 34.59375 12.972656 27.824219 C 12.972656 21.054688 15.71875 14.925781 20.152344 10.488281 C 24.589844 6.054688 30.71875 3.308594 37.488281 3.308594 Z M 53.429688 11.878906 C 49.351562 7.796875 43.714844 5.273438 37.488281 5.273438 C 31.261719 5.273438 25.621094 7.796875 21.542969 11.878906 C 17.460938 15.957031 14.9375 21.597656 14.9375 27.824219 C 14.9375 34.050781 17.460938 39.6875 21.542969 43.765625 C 25.621094 47.847656 31.261719 50.371094 37.488281 50.371094 C 43.714844 50.371094 49.351562 47.847656 53.429688 43.765625 C 57.511719 39.6875 60.035156 34.050781 60.035156 27.824219 C 60.035156 21.597656 57.511719 15.957031 53.429688 11.878906 " fill-opacity="1" fill-rule="nonzero"/></g><g clip-path="url(#3f1a9ed733)"><path fill="#1e334e" d="M 51.726562 46.792969 L 62.375 65.238281 L 62.382812 65.238281 C 62.652344 65.707031 62.492188 66.308594 62.023438 66.578125 C 61.65625 66.789062 61.214844 66.742188 60.910156 66.492188 L 52.792969 60.617188 L 53.902344 70.585938 L 53.90625 70.585938 C 53.964844 71.125 53.578125 71.609375 53.039062 71.667969 C 52.605469 71.71875 52.207031 71.480469 52.035156 71.101562 L 40.710938 51.492188 L 40.707031 51.492188 C 40.4375 51.023438 40.597656 50.421875 41.066406 50.152344 C 41.183594 50.085938 41.304688 50.042969 41.433594 50.027344 C 43.035156 49.746094 44.574219 49.296875 46.027344 48.699219 C 47.53125 48.085938 48.957031 47.308594 50.277344 46.394531 L 50.832031 47.203125 L 50.277344 46.394531 C 50.722656 46.085938 51.332031 46.199219 51.640625 46.644531 C 51.675781 46.695312 51.703125 46.742188 51.726562 46.792969 Z M 58.390625 62.246094 L 50.503906 48.589844 C 49.324219 49.332031 48.074219 49.976562 46.769531 50.511719 C 45.582031 51 44.351562 51.394531 43.085938 51.691406 L 51.4375 66.152344 L 50.605469 58.691406 C 50.558594 58.441406 50.613281 58.171875 50.773438 57.949219 C 51.09375 57.511719 51.707031 57.414062 52.148438 57.730469 L 51.570312 58.527344 L 52.148438 57.730469 L 58.390625 62.246094 " fill-opacity="1" fill-rule="nonzero"/></g><g clip-path="url(#866b3295b0)"><path fill="#1e334e" d="M 24.464844 48.589844 L 16.585938 62.246094 L 22.824219 57.730469 L 23.402344 58.527344 L 22.824219 57.730469 C 23.265625 57.414062 23.878906 57.511719 24.199219 57.949219 C 24.359375 58.171875 24.414062 58.441406 24.371094 58.691406 L 23.539062 66.148438 L 31.882812 51.691406 C 30.621094 51.394531 29.390625 51 28.203125 50.511719 C 26.898438 49.976562 25.648438 49.332031 24.464844 48.589844 Z M 12.597656 65.238281 L 23.246094 46.792969 C 23.269531 46.742188 23.296875 46.695312 23.332031 46.644531 C 23.640625 46.199219 24.25 46.085938 24.695312 46.394531 L 24.136719 47.203125 L 24.695312 46.394531 C 26.019531 47.308594 27.441406 48.085938 28.949219 48.699219 C 30.402344 49.296875 31.9375 49.746094 33.542969 50.027344 C 33.667969 50.042969 33.789062 50.085938 33.90625 50.152344 C 34.375 50.421875 34.535156 51.023438 34.265625 51.492188 L 33.414062 51 L 34.261719 51.492188 L 22.929688 71.121094 C 22.753906 71.488281 22.359375 71.71875 21.9375 71.667969 C 21.394531 71.609375 21.007812 71.125 21.066406 70.585938 L 21.070312 70.585938 L 22.183594 60.617188 L 14.066406 66.492188 C 13.757812 66.742188 13.316406 66.789062 12.953125 66.578125 C 12.484375 66.308594 12.320312 65.707031 12.59375 65.238281 L 12.597656 65.238281 " fill-opacity="1" fill-rule="nonzero"/></g><path fill="#1e334e" d="M 37.488281 7.578125 C 43.078125 7.578125 48.140625 9.84375 51.804688 13.507812 C 55.46875 17.171875 57.730469 22.234375 57.730469 27.824219 C 57.730469 33.414062 55.46875 38.476562 51.804688 42.136719 C 48.140625 45.800781 43.078125 48.070312 37.488281 48.070312 C 31.894531 48.070312 26.832031 45.800781 23.171875 42.136719 C 19.507812 38.476562 17.242188 33.414062 17.242188 27.824219 C 17.242188 22.234375 19.507812 17.171875 23.171875 13.507812 C 26.832031 9.84375 31.894531 7.578125 37.488281 7.578125 Z M 50.414062 14.894531 C 47.105469 11.585938 42.535156 9.542969 37.488281 9.542969 C 32.4375 9.542969 27.867188 11.585938 24.558594 14.894531 C 21.253906 18.203125 19.207031 22.773438 19.207031 27.824219 C 19.207031 32.871094 21.253906 37.441406 24.558594 40.75 C 27.867188 44.058594 32.4375 46.105469 37.488281 46.105469 C 42.535156 46.105469 47.105469 44.058594 50.414062 40.75 C 53.722656 37.441406 55.769531 32.871094 55.769531 27.824219 C 55.769531 22.773438 53.722656 18.203125 50.414062 14.894531 " fill-opacity="1" fill-rule="nonzero"/></svg>