<svg xmlns="http://www.w3.org/2000/svg" xmlns:xlink="http://www.w3.org/1999/xlink" width="100" zoomAndPan="magnify" viewBox="0 0 75 74.999997" height="100" preserveAspectRatio="xMidYMid meet" version="1.0"><defs><clipPath id="448e7cb4aa"><path d="M 3.300781 5.609375 L 71.550781 5.609375 L 71.550781 69.359375 L 3.300781 69.359375 Z M 3.300781 5.609375 " clip-rule="nonzero"/></clipPath></defs><g clip-path="url(#448e7cb4aa)"><path fill="#1e334e" d="M 4.722656 63.503906 C 8.375 62.675781 12.074219 62.296875 15.816406 62.367188 C 24.671875 62.5625 31.8125 66.472656 36.074219 68.804688 L 36.894531 69.246094 L 37.109375 69.246094 C 37.210938 69.3125 37.320312 69.355469 37.441406 69.382812 C 37.605469 69.378906 37.765625 69.34375 37.917969 69.269531 L 37.972656 69.269531 L 38.703125 68.871094 C 42.964844 66.597656 50.070312 62.628906 58.957031 62.4375 C 62.703125 62.359375 66.402344 62.738281 70.054688 63.574219 C 70.472656 63.722656 70.847656 63.648438 71.179688 63.355469 C 71.515625 63.0625 71.632812 62.699219 71.542969 62.265625 L 66.996094 20.375 C 66.964844 20.085938 66.839844 19.84375 66.621094 19.652344 C 66.40625 19.457031 66.148438 19.363281 65.859375 19.363281 C 64.347656 19.617188 62.917969 20.113281 61.574219 20.855469 L 61.3125 18.125 C 61.285156 17.832031 61.164062 17.585938 60.945312 17.386719 C 60.726562 17.1875 60.46875 17.089844 60.175781 17.089844 C 56.246094 17.238281 52.34375 17.640625 48.464844 18.296875 L 49.957031 12.613281 L 51.09375 8.316406 C 51.128906 8.171875 51.136719 8.027344 51.117188 7.878906 C 51.097656 7.730469 51.050781 7.59375 50.976562 7.464844 C 50.898438 7.335938 50.804688 7.226562 50.6875 7.136719 C 50.570312 7.046875 50.441406 6.980469 50.296875 6.941406 L 46.148438 5.722656 C 45.839844 5.632812 45.550781 5.667969 45.273438 5.824219 C 44.996094 5.984375 44.816406 6.21875 44.738281 6.53125 L 43.601562 10.816406 L 41.226562 19.910156 C 39.90625 20.300781 38.644531 20.832031 37.441406 21.5 C 33.289062 19.023438 23.492188 17.328125 15.839844 17.089844 C 15.550781 17.089844 15.296875 17.183594 15.082031 17.375 C 14.863281 17.566406 14.738281 17.804688 14.703125 18.089844 L 14.398438 20.71875 C 12.648438 20.097656 10.855469 19.644531 9.019531 19.363281 C 8.730469 19.363281 8.476562 19.457031 8.257812 19.652344 C 8.039062 19.84375 7.914062 20.085938 7.882812 20.375 L 3.335938 62.277344 C 3.316406 62.460938 3.339844 62.636719 3.40625 62.804688 C 3.472656 62.976562 3.574219 63.121094 3.710938 63.242188 C 3.847656 63.367188 4.003906 63.449219 4.179688 63.496094 C 4.355469 63.542969 4.535156 63.546875 4.710938 63.503906 Z M 64.871094 21.910156 L 69.109375 60.949219 C 65.785156 60.300781 62.425781 60.011719 59.039062 60.085938 C 53.496094 60.289062 48.21875 61.589844 43.214844 63.984375 C 46.328125 60.699219 50.261719 57.164062 54.582031 56.96875 C 57.53125 56.886719 60.410156 57.292969 63.222656 58.195312 C 63.609375 58.320312 63.960938 58.257812 64.277344 58.003906 C 64.597656 57.75 64.734375 57.417969 64.699219 57.015625 L 61.753906 23.265625 C 62.746094 22.773438 63.972656 22.242188 64.871094 21.910156 Z M 46.679688 8.269531 L 48.601562 8.816406 L 48.011719 10.90625 L 46.089844 10.359375 Z M 45.542969 12.554688 L 47.464844 13.113281 L 38.246094 48.351562 L 36.507812 51.070312 L 36.304688 47.703125 Z M 16.851562 19.363281 C 24.308594 19.71875 33.769531 21.492188 36.757812 23.742188 C 36.929688 23.871094 37.125 23.945312 37.339844 23.960938 C 37.554688 23.980469 37.757812 23.941406 37.949219 23.84375 L 38.191406 23.683594 C 38.925781 23.203125 39.710938 22.824219 40.542969 22.546875 L 34.027344 47.296875 C 34.019531 47.414062 34.019531 47.53125 34.027344 47.648438 L 34.40625 54.660156 C 34.414062 54.910156 34.5 55.128906 34.652344 55.320312 C 34.808594 55.515625 35.007812 55.644531 35.246094 55.707031 C 35.339844 55.71875 35.433594 55.71875 35.53125 55.707031 C 35.949219 55.710938 36.269531 55.535156 36.496094 55.183594 L 40.234375 49.339844 C 40.292969 49.238281 40.339844 49.125 40.371094 49.011719 L 42.507812 40.859375 L 56.933594 38.691406 L 56.59375 36.417969 L 43.125 38.496094 L 45.035156 31.199219 C 50.71875 30.277344 55.058594 29.605469 55.617188 29.59375 L 55.617188 27.320312 C 54.785156 27.320312 49.035156 28.242188 45.667969 28.789062 L 47.785156 20.730469 C 51.546875 20.042969 55.335938 19.601562 59.152344 19.410156 L 62.324219 55.570312 C 59.753906 54.902344 57.144531 54.613281 54.492188 54.695312 C 48.410156 54.890625 43.511719 60.210938 39.941406 64.109375 C 38.972656 65.144531 38.121094 66.085938 37.394531 66.757812 C 36.65625 66.085938 35.800781 65.152344 34.847656 64.121094 C 31.277344 60.21875 26.378906 54.898438 20.296875 54.707031 C 17.683594 54.628906 15.109375 54.917969 12.578125 55.570312 Z M 10.03125 21.785156 C 11.167969 22.058594 12.917969 22.582031 14.148438 22.921875 L 10.15625 56.992188 C 10.132812 57.183594 10.160156 57.371094 10.230469 57.550781 C 10.304688 57.730469 10.414062 57.882812 10.5625 58.003906 C 10.710938 58.128906 10.882812 58.207031 11.074219 58.242188 C 11.261719 58.28125 11.449219 58.269531 11.632812 58.207031 C 14.445312 57.304688 17.324219 56.898438 20.273438 56.980469 C 24.640625 57.117188 28.574219 60.710938 31.640625 63.996094 C 26.644531 61.601562 21.378906 60.300781 15.839844 60.09375 C 12.445312 60.03125 9.082031 60.316406 5.746094 60.960938 Z M 10.03125 21.785156 " fill-opacity="1" fill-rule="nonzero"/></g><path fill="#1e334e" d="M 34.210938 29.59375 C 31.9375 29.21875 20.421875 27.320312 19.25 27.320312 L 19.25 29.59375 C 20.09375 29.59375 28.652344 30.984375 33.847656 31.867188 Z M 34.210938 29.59375 " fill-opacity="1" fill-rule="nonzero"/><path fill="#1e334e" d="M 17.933594 38.675781 L 18.277344 36.429688 L 33.054688 38.703125 L 32.707031 40.949219 Z M 17.933594 38.675781 " fill-opacity="1" fill-rule="nonzero"/><path fill="#1e334e" d="M 16.800781 48.898438 L 17.148438 46.652344 L 31.921875 48.929688 L 31.578125 51.175781 Z M 16.800781 48.898438 " fill-opacity="1" fill-rule="nonzero"/><path fill="#1e334e" d="M 42.945312 48.941406 L 57.71875 46.664062 L 58.066406 48.914062 L 43.292969 51.1875 Z M 42.945312 48.941406 " fill-opacity="1" fill-rule="nonzero"/></svg>