<svg xmlns="http://www.w3.org/2000/svg" xmlns:xlink="http://www.w3.org/1999/xlink" width="100" zoomAndPan="magnify" viewBox="0 0 75 74.999997" height="100" preserveAspectRatio="xMidYMid meet" version="1.0"><defs><clipPath id="ad8099f951"><path d="M 45 10 L 69.375 10 L 69.375 69.375 L 45 69.375 Z M 45 10 " clip-rule="nonzero"/></clipPath><clipPath id="8d7bcf90de"><path d="M 5.625 10 L 30 10 L 30 69.375 L 5.625 69.375 Z M 5.625 10 " clip-rule="nonzero"/></clipPath><clipPath id="f0fc883917"><path d="M 21 5.625 L 54 5.625 L 54 35 L 21 35 Z M 21 5.625 " clip-rule="nonzero"/></clipPath></defs><rect x="-7.5" width="90" fill="#ffffff" y="-7.5" height="89.999996" fill-opacity="1"/><rect x="-7.5" width="90" fill="#ffffff" y="-7.5" height="89.999996" fill-opacity="1"/><g clip-path="url(#ad8099f951)"><path fill="#1e334e" d="M 64.0625 10.9375 C 61.132812 10.9375 58.75 13.320312 58.75 16.25 L 58.75 33.519531 C 57.476562 33.578125 56.289062 34.097656 55.382812 35.003906 L 45.46875 44.917969 L 45.46875 69.375 L 62.734375 69.375 L 62.734375 53.988281 L 69.375 47.347656 L 69.375 16.25 C 69.375 13.320312 66.992188 10.9375 64.0625 10.9375 Z M 66.71875 46.246094 L 60.078125 52.886719 L 60.078125 66.71875 L 48.125 66.71875 L 48.125 46.019531 L 57.261719 36.882812 C 57.71875 36.425781 58.328125 36.171875 58.976562 36.171875 C 60.316406 36.171875 61.40625 37.261719 61.40625 38.601562 C 61.40625 39.25 61.152344 39.859375 60.695312 40.316406 L 55.15625 45.859375 L 57.03125 47.734375 L 62.574219 42.195312 C 63.535156 41.234375 64.0625 39.957031 64.0625 38.601562 C 64.0625 36.675781 62.988281 34.996094 61.40625 34.132812 L 61.40625 16.25 C 61.40625 14.785156 62.597656 13.59375 64.0625 13.59375 C 65.527344 13.59375 66.71875 14.785156 66.71875 16.25 Z M 66.71875 46.246094 " fill-opacity="1" fill-rule="nonzero"/></g><g clip-path="url(#8d7bcf90de)"><path fill="#1e334e" d="M 12.265625 69.375 L 29.53125 69.375 L 29.53125 44.917969 L 19.617188 35.003906 C 18.710938 34.097656 17.523438 33.578125 16.25 33.519531 L 16.25 16.25 C 16.25 13.320312 13.867188 10.9375 10.9375 10.9375 C 8.007812 10.9375 5.625 13.320312 5.625 16.25 L 5.625 47.347656 L 12.265625 53.988281 Z M 8.28125 46.246094 L 8.28125 16.25 C 8.28125 14.785156 9.472656 13.59375 10.9375 13.59375 C 12.402344 13.59375 13.59375 14.785156 13.59375 16.25 L 13.59375 34.132812 C 12.011719 34.996094 10.9375 36.675781 10.9375 38.601562 C 10.9375 39.960938 11.464844 41.234375 12.425781 42.195312 L 17.96875 47.734375 L 19.84375 45.859375 L 14.304688 40.316406 C 13.847656 39.859375 13.59375 39.25 13.59375 38.601562 C 13.59375 37.261719 14.683594 36.171875 16.023438 36.171875 C 16.671875 36.171875 17.28125 36.425781 17.738281 36.882812 L 26.875 46.019531 L 26.875 66.71875 L 14.921875 66.71875 L 14.921875 52.886719 Z M 8.28125 46.246094 " fill-opacity="1" fill-rule="nonzero"/></g><g clip-path="url(#f0fc883917)"><path fill="#1e334e" d="M 50.871094 20.640625 C 54.285156 17.210938 54.285156 11.632812 50.871094 8.203125 C 49.214844 6.539062 47.015625 5.625 44.671875 5.625 C 42.328125 5.625 40.128906 6.539062 38.472656 8.203125 L 37.5 9.179688 L 36.527344 8.203125 C 34.871094 6.539062 32.671875 5.625 30.328125 5.625 C 27.984375 5.625 25.785156 6.539062 24.128906 8.203125 C 20.714844 11.632812 20.714844 17.210938 24.128906 20.640625 L 37.5 34.070312 Z M 26.011719 10.078125 C 27.164062 8.917969 28.695312 8.28125 30.328125 8.28125 C 31.960938 8.28125 33.492188 8.917969 34.644531 10.078125 L 37.5 12.945312 L 40.351562 10.078125 C 41.507812 8.917969 43.039062 8.28125 44.671875 8.28125 C 46.304688 8.28125 47.835938 8.917969 48.988281 10.078125 C 51.375 12.472656 51.375 16.371094 48.988281 18.765625 L 37.5 30.304688 L 26.011719 18.765625 C 23.625 16.371094 23.625 12.472656 26.011719 10.078125 Z M 26.011719 10.078125 " fill-opacity="1" fill-rule="nonzero"/></g></svg>