<svg xmlns="http://www.w3.org/2000/svg" xmlns:xlink="http://www.w3.org/1999/xlink" width="100" zoomAndPan="magnify" viewBox="0 0 75 74.999997" height="100" preserveAspectRatio="xMidYMid meet" version="1.0"><defs><clipPath id="7002a86183"><path d="M 3.144531 4.777344 L 72 4.777344 L 72 70.027344 L 3.144531 70.027344 Z M 3.144531 4.777344 " clip-rule="nonzero"/></clipPath></defs><rect x="-7.5" width="90" fill="#ffffff" y="-7.5" height="89.999996" fill-opacity="1"/><rect x="-7.5" width="90" fill="#ffffff" y="-7.5" height="89.999996" fill-opacity="1"/><g clip-path="url(#7002a86183)"><path fill="#1e334e" d="M 58.726562 70.164062 L 37.496094 59.007812 L 16.265625 70.164062 L 20.320312 46.53125 L 3.144531 29.777344 L 26.875 26.328125 L 37.496094 4.824219 L 48.121094 26.328125 L 71.851562 29.777344 L 54.675781 46.53125 Z M 7.089844 31.070312 L 22.285156 45.882812 L 18.699219 66.8125 L 37.496094 56.933594 L 56.28125 66.8125 L 52.695312 45.882812 L 67.90625 31.070312 L 46.898438 28.019531 L 37.496094 8.972656 L 28.097656 28.007812 Z M 7.089844 31.070312 " fill-opacity="1" fill-rule="nonzero"/></g></svg>